<svg xmlns="http://www.w3.org/2000/svg" width="58.433" height="52.209" viewBox="0 0 58.433 52.209">
    <g transform="translate(-443.65 -1078.775)">
        <g transform="translate(443.65 1078.775)">
            <path class="a" style="fill:#70dbca;"
                d="M462.158,1164.651c-.466-.673-.929-1.348-1.4-2.017-.355-.505-.7-.5-1.032.032a1.058,1.058,0,0,0-.121.213c-.717,2.24-2.332,2.662-4.483,2.488a62.764,62.764,0,0,0-6.748-.021,1.825,1.825,0,0,1-1.843-1.088,20.805,20.805,0,0,1-.677-19.9c.4-.857.841-1.143,1.793-.791,2.147.8,4.328,1.5,6.506,2.212,1.076.351,1.251.174,1.037-.938-.17-.884-.346-1.767-.547-2.643-.147-.638.075-.93.73-.928q3.5.01,7,0a.884.884,0,0,1,.983.866c.1.688.2,1.375.306,2.062a115,115,0,0,0,3.985,16.323c.332,1.019.865,1.415,1.863,1.287a26.886,26.886,0,0,1,3.656-.248c.573.006,1.174-.055.588-.872-4.569-3.451-5.846-8.743-3.076-13.215a10.388,10.388,0,0,1,8.112-4.934,10.841,10.841,0,0,1,7.443,1.478c2.6,1.732,3.514,4.329,3.741,7.261a25,25,0,0,1-.951,8.755c-.147.522-.67,1.183.293,1.529,1.128.406,2.214.138,2.541-.69a27.047,27.047,0,0,0,1.57-6.934,60.262,60.262,0,0,0-1.335-19.411c-.44-2.084-.94-4.156-1.478-6.216-.2-.762-.041-1.114.732-1.341,2.674-.784,5.34-1.6,7.988-2.463.943-.307,1.147.167,1.3.9a62.233,62.233,0,0,1,1.3,9.737,88.366,88.366,0,0,1-2.63,28.029c-.586,2.137-.561,2.145-2.765,2.145-2.992,0-5.985-.046-8.976.021a2.272,2.272,0,0,1-2.261-1.269c-1.591-2.622-1.41-2.282-2.706.043-.346.949-1.023,1.172-2.007,1.163-5.608-.048-11.216-.026-16.825-.019C463.137,1165.269,462.518,1165.313,462.158,1164.651Z"
                transform="translate(-443.65 -1113.194)" />
            <path class="a" style="fill:#70dbca;"
                d="M575.762,1150.4a3.724,3.724,0,0,1,7.447.146,3.724,3.724,0,1,1-7.447-.146Z"
                transform="translate(-543.272 -1130.048)" />
            <path class="a" style="fill:#70dbca;"
                d="M498.456,1153.422a3.037,3.037,0,1,1-6.047.126,3.224,3.224,0,0,1,3.1-3.422A3.156,3.156,0,0,1,498.456,1153.422Z"
                transform="translate(-480.417 -1132.578)" />
            <path class="a" style="fill:#70dbca;"
                d="M572.621,1105.215a1.987,1.987,0,0,1-2.1.16,1.468,1.468,0,0,0-1.9.493,2.318,2.318,0,0,1-2.525.833,2.287,2.287,0,0,1-1.378-2.381,6.385,6.385,0,0,1,.2-2.544c.1-.259.32-.544.645-.448.3.089.155.413.164.639.013.367-.021.738.019,1.1.073.656.337,1.234,1.076,1.285a1.4,1.4,0,0,0,1.459-1.078,4.058,4.058,0,0,0,.023-1.82c-.047-.5-.086-1.122.524-1.2.569-.074.4.594.522.934.3.874.635,1.7,1.634,1.986s1.5-.177,1.214-1.2a16.968,16.968,0,0,0-.655-1.846,1.21,1.21,0,0,1,.315-1.343c.261-.247.657-.665.837-.1C573.371,1100.857,574.245,1103.06,572.621,1105.215Z"
                transform="translate(-534.915 -1093.58)" />
            <path class="a" style="fill:#70dbca;"
                d="M467.71,1156.13a2.856,2.856,0,0,1-3.976,0,3.742,3.742,0,0,1-.476-4.515,2.849,2.849,0,0,1,3.95-.968C469.054,1152.248,469.207,1153.916,467.71,1156.13Z"
                transform="translate(-458.022 -1132.669)" />
            <path class="a" style="fill:#70dbca;"
                d="M565.518,1083.43c-1.067.376-2.125.781-3.205,1.111-.353.108-.912.6-1.109-.059a1.154,1.154,0,0,1,.6-1.443c.63-.262,1.306-.416,1.962-.617,2.316-.8,4.668-1.5,6.931-2.444l0,0c.563.591.329,1.319-.62,1.713-1.241.515-2.51.959-3.779,1.4A2.434,2.434,0,0,0,565.518,1083.43Z"
                transform="translate(-532.249 -1079.681)" />
            <path class="a" style="fill:#70dbca;"
                d="M578.925,1082.524c1.217-1.01,2.835-1.067,4.187-1.762.708-.364,1.416-.684,1-1.692.216-.209.506-.4.756-.23s-.027.433-.106.645a2.575,2.575,0,0,1-1.785,1.687A30.84,30.84,0,0,1,578.925,1082.524Z"
                transform="translate(-545.657 -1078.775)" />
        </g>
        <path class="b" style="fill:#fff;"
            d="M590.371,1224.913a18.562,18.562,0,0,1-.528,4.255c-.155.722-.5,1.058-1.163.442a10.5,10.5,0,0,1-3.7-7.365,3.968,3.968,0,0,1,.076-1.1c.241-1.009.5-2.063,1.75-2.256a2.447,2.447,0,0,1,2.572,1.518A8.711,8.711,0,0,1,590.371,1224.913Z"
            transform="translate(-106.567 -105.634)" />
        <path class="b" style="fill:#fff;"
            d="M482.349,1227.78a21.956,21.956,0,0,1,1.908-8.83c.092-.222.178-.5.472-.5.381.009.39.363.459.625.4,1.5.794,3,1.162,4.511a2.069,2.069,0,0,1,.018.963,35.906,35.906,0,0,1-2.363,6.564c-.133.279-.234.7-.636.651s-.408-.467-.511-.764A14.864,14.864,0,0,1,482.349,1227.78Z"
            transform="translate(-29.182 -105.329)" />
    </g>
</svg>